<svg width="48" height="48" fill="none" xmlns="http://www.w3.org/2000/svg"><g clip-path="url(#a)"><path fill-rule="evenodd" clip-rule="evenodd" d="M14 4c5.523 0 10 4.477 10 10V4h10c5.523 0 10 4.477 10 10s-4.477 10-10 10c5.523 0 10 4.477 10 10a9.968 9.968 0 0 1-2.891 7.033l-.038.038-.033.033A9.968 9.968 0 0 1 34 44a9.968 9.968 0 0 1-7.136-2.995A9.968 9.968 0 0 1 24 34c0 5.523-4.477 10-10 10S4 39.523 4 34V24h10C8.477 24 4 19.523 4 14S8.477 4 14 4Zm8 10a8 8 0 0 1-8 8V6a8 8 0 0 1 8 8Zm20 20a8 8 0 1 0-16 0h16ZM6 26v8a8 8 0 1 0 16 0v-8H6Zm20-4V6h8a8 8 0 1 1 0 16h-8Z" fill="#263238"/></g><defs><clipPath id="a"><path fill="#fff" transform="translate(4 4)" d="M0 0h40v40H0z"/></clipPath></defs></svg>