<svg width="48" height="48" fill="none" xmlns="http://www.w3.org/2000/svg"><g clip-path="url(#a)" fill="#3A3B7B"><path d="M44.996 13.412c0 .033 0 .076-.008.1-.044.33-.044.66-.018.998.018.085.035.17.106.237.114.127.29.102.36-.05a.34.34 0 0 0 .019-.229c-.089-.321-.106-.66-.115-.989v-.067c.097-.009.185-.017.264-.017a.432.432 0 0 0 .159-.043c.132-.067.132-.211-.009-.279a.449.449 0 0 0-.185-.033c-.22.008-.44.008-.66.008-.08 0-.16.008-.238.017-.044.008-.097.008-.133.034-.061.025-.096.067-.096.127.008.059.035.092.096.118.036.025.08.034.124.034.105.008.22.025.334.034Zm2.423.388c0 .009.008.017.008.017.036.229.07.448.097.668.01.076.018.144.07.203.115.144.291.127.37-.025a.364.364 0 0 0 .027-.237c-.053-.254-.08-.507-.132-.752a5.078 5.078 0 0 0-.123-.432.206.206 0 0 0-.194-.152.215.215 0 0 0-.23.11 1.074 1.074 0 0 0-.131.212c-.062.135-.115.27-.185.397a.25.25 0 0 1-.035.084c-.01-.017-.018-.025-.018-.025-.114-.211-.22-.423-.335-.626-.017-.017-.026-.033-.035-.05-.053-.076-.114-.119-.211-.119a.26.26 0 0 0-.203.136c-.017.033-.017.059-.026.093-.036.27-.08.54-.115.811a3.971 3.971 0 0 0-.026.457.163.163 0 0 0 .017.11c.018.067.07.11.141.118.088.008.15-.017.177-.085a.477.477 0 0 0 .044-.135c.035-.152.061-.296.088-.44.017-.084.026-.152.052-.245.018.034.036.06.053.085.08.101.159.203.256.287.097.068.176.06.255-.017l.044-.042c.08-.118.176-.237.256-.355.017-.017.026-.034.044-.05ZM27.124 13.578c-.06.16-.072.276-.044.372.031.131.112.174.222.14 1.035-.245 3.303.452 4.143.646.198.041.36-.204.224-.425-.197-.213-2.465-1.125-3.33-1.175-.34-.018-.945-.101-1.215.442ZM35.99 10.624c.11.061.172.12.203.185.045.085.021.144-.055.174-.684.32-1.594 1.7-1.961 2.175-.09.11-.295.046-.326-.134.007-.203.813-1.7 1.264-2.107.176-.16.469-.472.875-.293ZM30.544 9.946c.133-.096.27-.13.34-.068 1.033.847 1.58 2.188 1.919 3.416.012.029.013.07.003.113-.004.036-.032.075-.076.105-.048.033-.088.043-.107.014-.453-.59-3.035-2.887-2.078-3.58ZM8.695 24.629c.248-.177.516-.324.8-.438.299-.082.616-.069.905.038.288.107.533.301.697.553a1.284 1.284 0 0 1-.224 1.583c-.164.166-.35.311-.553.43-.904.561-1.817 1.092-2.73 1.653-.186.14-.384.266-.592.376a1.57 1.57 0 0 1-1.02.115 1.52 1.52 0 0 1-.862-.537c-.159-.192-.293-.4-.4-.623-.865-1.744-1.761-3.48-2.594-5.256-.384-.768-.696-1.652-1-2.505a1.03 1.03 0 0 1-.072-.8c.085-.267.276-.49.53-.623.255-.133.553-.165.832-.09.28.074.517.25.663.491.448.571.844 1.178 1.185 1.814.864 1.536 1.69 3.073 2.522 4.564.048.082.102.162.16.238a7.861 7.861 0 0 0 1.753-.983ZM17.635 24.093c-1.977 2.22-5.292 1.66-6.957-1.2-1.185-2.028-1.393-5.378 1.185-7.491a4.33 4.33 0 0 1 1.913-.876 4.29 4.29 0 0 1 2.518.418 4.053 4.053 0 0 1 1.782 1.756c1.409 2.46 1.209 5.594-.44 7.393Zm-.8-5.18a2.78 2.78 0 0 0-1.193-1.46 1.749 1.749 0 0 0-2.138.131c-1.145.976-1.385 3.289-.552 4.664a1.7 1.7 0 0 0 .457.584c.194.16.423.278.67.345a1.832 1.832 0 0 0 1.467-.23 3.628 3.628 0 0 0 1.302-1.819 3.488 3.488 0 0 0-.037-2.207l.024-.008ZM25.706 19.882a1.615 1.615 0 0 1-1.185-.216 1.162 1.162 0 0 1-.381-.333 1.085 1.085 0 0 1-.168-.952c.047-.161.13-.31.244-.436a1.47 1.47 0 0 1 .801-.515 12.038 12.038 0 0 1 2.562-.422 1.5 1.5 0 0 1 1.073.299c.15.116.273.26.364.422.09.162.146.34.164.524.25.9.278 1.845.08 2.758-.72 2.95-3.202 3.965-5.988 3.02a4.146 4.146 0 0 1-1.97-1.352 6.247 6.247 0 0 1-1.385-2.62 5.3 5.3 0 0 1 .063-2.603 5.455 5.455 0 0 1 1.298-2.285 5.657 5.657 0 0 1 2.21-1.621 2.59 2.59 0 0 1 1.793-.23.808.808 0 0 1 .362.206.738.738 0 0 1 .19.758.765.765 0 0 1-.223.342c-.2.173-.418.328-.649.46a6.572 6.572 0 0 0-1.825 1.653 3.533 3.533 0 0 0-.654 1.429 3.462 3.462 0 0 0 .037 1.56 3.447 3.447 0 0 0 1.153 1.79c1.761 1.537 4.051.054 3.65-2.044-.584.139-1.096.285-1.616.408ZM36.466 24.215c-2.602 1.537-5.564 0-6.213-3.227-.472-2.305.425-5.532 3.563-6.762a4.432 4.432 0 0 1 2.106-.261 4.22 4.22 0 0 1 2.248 1.158 3.936 3.936 0 0 1 1.122 2.2c.529 2.743-.672 5.67-2.826 6.892Zm.905-5.171c-.001-.638-.236-1.256-.665-1.744a1.686 1.686 0 0 0-.937-.613 1.747 1.747 0 0 0-1.128.098c-1.41.584-2.402 2.705-2.042 4.265.028.244.11.48.243.691.132.211.311.392.524.53a1.831 1.831 0 0 0 1.467.224 3.774 3.774 0 0 0 1.844-1.336 3.534 3.534 0 0 0 .694-2.115ZM41.923 24.86c-.039.282-.193.537-.428.71a1.15 1.15 0 0 1-1.562-.202 1.038 1.038 0 0 1 .21-1.5 1.15 1.15 0 0 1 1.562.201c.18.226.258.51.218.792Zm-.696-10.365c.152-.223.376-.393.637-.485.261-.091.546-.099.812-.022.27.065.51.217.677.431.168.214.254.477.244.745-.035.429-.102.855-.2 1.275-.264 1.422-.52 2.843-.8 4.25a19.383 19.383 0 0 1-.481 1.667 1.187 1.187 0 0 1-.313.469.8.8 0 0 1-.325.218.831.831 0 0 1-.763-.105.774.774 0 0 1-.248-.298 1.723 1.723 0 0 1-.153-.668c0-.953 0-1.914.064-2.874.11-1.371.323-2.732.64-4.073.038-.18.109-.351.209-.507v-.023Z"/><path fill-rule="evenodd" clip-rule="evenodd" d="M5.313 31.036c-.095.202-.12.428-.075.645.031.287.099.569.201.84.129.33.272.658.45 1.062l.127.292c.238.547.538 1.247.937 2.259.113.287.214.577.315.869.04.118.082.236.124.355.15.421.409.8.752 1.1.145.165.338.285.555.346.22.06.456.057.674-.012.219-.068.41-.198.551-.373.138-.171.22-.378.235-.593.09-.42.06-.856-.088-1.261a21.29 21.29 0 0 0-.806-2.005l-.002-.003a123.395 123.395 0 0 0-1.555-3.078l-.004-.007a2.67 2.67 0 0 0-.604-.704 1.06 1.06 0 0 0-.614-.34c-.245-.042-.498 0-.713.12a1.078 1.078 0 0 0-.46.488ZM13.022 28.498a5.849 5.849 0 0 0-2.422-.084c-.623.059-1.235.197-1.66.47a1.238 1.238 0 0 0-.49.544c-.097.229-.11.49-.03.78.147.532.337 1.05.527 1.566l.03.084.001.002c.57 1.498 1.146 2.992 1.727 4.481.068.235.164.461.286.675l.002.004c.161.265.368.502.611.701.122.11.272.186.436.22a.958.958 0 0 0 .495-.03c.16-.052.3-.146.408-.27a.867.867 0 0 0 .2-.428 2.07 2.07 0 0 0-.096-1.284c-.052-.137-.093-.278-.137-.425l-.044-.151c1.33-.499 2.745-1.17 3.242-2.73.195-.54.212-1.124.047-1.673a2.763 2.763 0 0 0-.968-1.393 5.71 5.71 0 0 0-2.165-1.059Zm-2.194 1.915c.027-.008.053-.015.08-.02a3.761 3.761 0 0 1 2.494.49c.327.218.461.46.484.694.024.24-.067.501-.25.752-.346.473-.977.852-1.547.922-.416-.918-.838-1.874-1.26-2.838Z"/><path d="M18.3 26.817c.942-.418 2.11-.49 3.023-.197.23.065.43.204.565.394a.962.962 0 0 1 .175.644.907.907 0 0 1-.11.425.951.951 0 0 1-.306.334 1 1 0 0 1-.893.115l-.011-.004-.01-.006a1.036 1.036 0 0 0-.24-.085h-.005c-.642-.165-1.248.107-1.47.44-.105.16-.119.32-.03.466.093.156.325.332.792.457.129.034.26.067.394.1.37.092.754.187 1.125.32h.002c1.714.626 2.352 1.922 2.134 3.141-.217 1.206-1.266 2.303-2.843 2.562a3.516 3.516 0 0 1-1.733-.069 3.401 3.401 0 0 1-1.473-.889l-.01-.01a1.215 1.215 0 0 1-.25-.535.902.902 0 0 1 .053-.523.944.944 0 0 1 .335-.412 1.062 1.062 0 0 1 1.123-.084c.175.081.338.185.484.308l.003.002c.258.227.57.286.87.231.304-.055.59-.228.773-.457.183-.228.256-.498.17-.76-.088-.265-.352-.561-.93-.809a5.056 5.056 0 0 0-.471-.16l-.134-.039c-.12-.035-.245-.07-.366-.11a19.543 19.543 0 0 0-.25-.08c-.225-.07-.444-.139-.655-.23a2.25 2.25 0 0 1-1.132-.823 2.105 2.105 0 0 1-.396-1.314c.001-1.139.748-1.923 1.696-2.343ZM30.249 26.695a1.27 1.27 0 0 0-1.164.046c-.174.1-.32.238-.424.404a1.256 1.256 0 0 0-.192.958c.034.21.072.415.11.617.06.334.12.66.16.994l.002.008c.09.522.137 1.05.142 1.58v.007a2.144 2.144 0 0 1-.565 1.562l-.007.008a1.12 1.12 0 0 1-.494.347 1.165 1.165 0 0 1-1.154-.223 1.07 1.07 0 0 1-.316-.503 5.275 5.275 0 0 1-.202-1.244l.2-3.049.01-.122c.007-.093.015-.187.018-.275.005-.13 0-.262-.03-.388a.724.724 0 0 0-.203-.356 1.015 1.015 0 0 0-.435-.231c-.33-.092-.609-.09-.841.005-.233.095-.392.271-.505.474a2.6 2.6 0 0 0-.238.679c-.04.177-.073.363-.104.54l-.032.18v.001a12.442 12.442 0 0 0-.146 2.94c.013.53.128 1.054.34 1.544.24.633.673 1.18 1.243 1.572a3.565 3.565 0 0 0 1.957.619 3.574 3.574 0 0 0 1.977-.555 3.36 3.36 0 0 0 1.298-1.532 5.517 5.517 0 0 0 .503-2.53 85.83 85.83 0 0 0-.094-1.91c-.017-.313-.035-.624-.05-.934a1.482 1.482 0 0 0-.306-.861 1.214 1.214 0 0 0-.458-.372ZM36.717 31.476a9.409 9.409 0 0 1-.058.07c-.149-.822-.286-1.645-.425-2.47l-.149-.888-.005-.033-.019-.028c-.034-.054-.038-.107-.038-.22v-.012l-.002-.013a1.15 1.15 0 0 0-.313-.62 1.23 1.23 0 0 0-.62-.341 1.29 1.29 0 0 0-.718.036c-.23.079-.43.221-.576.41-.12.143-.22.303-.294.474l-.51 1.107-.004.006c-.426.924-.855 1.854-1.272 2.791l-.001.003c-.256.608-.467 1.248-.678 1.886l-.126.382c-.076.201-.11.415-.098.63a.908.908 0 0 0 .137.546c.105.168.262.3.45.378.198.084.42.102.63.05a.982.982 0 0 0 .53-.33 3.47 3.47 0 0 0 .437-.653c.353-.694.69-1.395 1.027-2.094.13-.27.256-.512.4-.776l.03.096c.15.637.405 1.246.753 1.806a.95.95 0 0 0 .27.305 1.016 1.016 0 0 0 1.184.001l.223-.16 1.734-1.402-.103.627c-.14.862-.28 1.717-.429 2.572a2.319 2.319 0 0 0 0 1.153c.043.213.15.41.31.564.16.156.365.261.589.304.223.042.455.018.665-.068.206-.084.382-.225.505-.406.286-.34.464-.752.513-1.187.074-.614.157-1.236.24-1.859.096-.717.191-1.434.272-2.137v-.002c.079-.77.116-1.543.114-2.316a1.132 1.132 0 0 0-.182-.696 1.206 1.206 0 0 0-.574-.464 1.313 1.313 0 0 0-.788-.082 1.277 1.277 0 0 0-.68.38c-.32.284-.62.588-.898.91l-.002.002c-.304.363-.606.734-.906 1.102-.182.223-.364.447-.545.666Z"/></g><defs><clipPath id="a"><path fill="#fff" transform="translate(1 9.847)" d="M0 0h47v29H0z"/></clipPath></defs></svg>