<svg width="55" height="48" fill="none" xmlns="http://www.w3.org/2000/svg"><g clip-path="url(#a)"><path d="M54.996 19.517a.455.455 0 0 0 0-.126.328.328 0 0 0 0-.103l-.408-2.932a1.901 1.901 0 0 0-.454-.948l-.07-.08-.127-.125-7.054-5.957.198.194a1.686 1.686 0 0 0-.595-.444 1.717 1.717 0 0 0-.732-.149h-2.142a1.569 1.569 0 0 0-.966.308 1.7 1.7 0 0 0-1-.308h-2.143a1.62 1.62 0 0 0-.803.198 1.58 1.58 0 0 0-.593.567 1.572 1.572 0 0 0-.233 1.14l.268 1.85a1.183 1.183 0 0 0-.582-.149H27.189c-.372.002-.736.11-1.048.308-.301.185-.544.45-.698.765l-.803-.674a1.683 1.683 0 0 0-1.164-.433H7.204a2.172 2.172 0 0 0-1.06.296c-.438.252-.76.661-.896 1.142L.08 30.802c-.096.28-.106.58-.027.865a1.48 1.48 0 0 0 .656.87s-.105-.069-.163-.126l7.053 5.968c.299.27.689.42 1.094.422h16.4a2.16 2.16 0 0 0 1.06-.308c.18-.097.342-.224.477-.377l.058-.08.093-.114.07-.125.768.65c.294.259.676.401 1.071.4h16.435a2.221 2.221 0 0 0 1.537-.685l.058-.08.093-.114c.05-.072.093-.148.128-.228.038-.07.07-.142.093-.217l4.714-15.473v-.137a.736.736 0 0 0 0-.16v-.103a.311.311 0 0 0 0-.102 1.48 1.48 0 0 0 0-.217h1.513c.132.012.264.012.396 0h.105c.085-.025.167-.06.244-.103h.117l.21-.16.092-.068.163-.206v-.068l.117-.194a.336.336 0 0 1 0-.114.09.09 0 0 1 0-.057c.024-.067.044-.136.058-.206a.147.147 0 0 1 0-.068.31.31 0 0 1 0-.103s.233-.445.233-.468Z" fill="#000"/><path d="M23.953 13.72a.397.397 0 0 1 .105.445L18.9 31.099a.792.792 0 0 1-.372.433.993.993 0 0 1-.477.16H1.663a.576.576 0 0 1-.372-.16.398.398 0 0 1-.105-.433l5.168-16.934a.79.79 0 0 1 .36-.445c.145-.087.309-.138.478-.149H23.58a.553.553 0 0 1 .373.149Zm-8.555 13.967 3.084-10.11H9.846l-3.073 10.11h8.625ZM39.596 13.89a.57.57 0 0 0 .455.194h2.13a.487.487 0 0 0 .407-.217.475.475 0 0 0 .081-.365l-.419-3.013a.952.952 0 0 0-.21-.376.57.57 0 0 0-.453-.194h-2.13a.485.485 0 0 0-.407.217c-.082.16-.117.262-.082.353l.43 3.013a.691.691 0 0 0 .198.388Zm6.763-3.423a.953.953 0 0 0-.21-.377.546.546 0 0 0-.442-.194h-2.141a.45.45 0 0 0-.396.217.472.472 0 0 0-.093.354l.43 3.012a.77.77 0 0 0 .198.388.592.592 0 0 0 .454.194h2.142a.46.46 0 0 0 .396-.217.43.43 0 0 0 .081-.365l-.419-3.012Zm-8.637 4.564-.209-1.483H27.189a.92.92 0 0 0-.454.148.671.671 0 0 0-.338.445l-.861 2.83a.381.381 0 0 0 .07.433c.098.09.226.144.36.149h12.548l-3.085 10.11H22.917a.885.885 0 0 0-.454.137.777.777 0 0 0-.338.445l-.872 2.83a.414.414 0 0 0 .081.433.54.54 0 0 0 .36.16H38.13c.17-.014.334-.069.477-.16.172-.094.3-.249.36-.433l4.727-15.474h-5.32a.626.626 0 0 1-.454-.182.827.827 0 0 1-.198-.365v-.023Z" fill="#fff"/></g><defs><clipPath id="a"><path fill="#fff" transform="translate(0 8.847)" d="M0 0h55v30H0z"/></clipPath></defs></svg>