<svg width="52" height="48" fill="none" xmlns="http://www.w3.org/2000/svg"><g clip-path="url(#a)" fill="#394149"><path d="M12.343 13.847c-2.03 0-3.978.806-5.414 2.242l-4.686 4.687A7.657 7.657 0 0 0 13.07 31.604l3.242-3.241 9.444-9.445a3.657 3.657 0 0 1 6.064 1.451l2.98-2.98a7.657 7.657 0 0 0-11.873-1.3L10.244 28.776a3.657 3.657 0 0 1-5.172-5.172l4.686-4.686a3.657 3.657 0 0 1 6.064 1.452l2.98-2.981a7.651 7.651 0 0 0-6.458-3.542Z"/><path d="M26.243 28.776a3.657 3.657 0 0 1-6.063-1.451l-2.981 2.98a7.656 7.656 0 0 0 11.872 1.299l12.686-12.686a3.657 3.657 0 1 1 5.172 5.172l-4.686 4.686a3.657 3.657 0 0 1-6.064-1.452l-2.98 2.981a7.657 7.657 0 0 0 11.872 1.3l4.686-4.687A7.657 7.657 0 0 0 38.93 16.089L26.243 28.776Z"/></g><defs><clipPath id="a"><path fill="#fff" transform="translate(0 13.847)" d="M0 0h52v20H0z"/></clipPath></defs></svg>