<svg width="48" height="48" fill="none" xmlns="http://www.w3.org/2000/svg"><g clip-path="url(#a)" fill="#212326"><path d="M42.438 11.69c0 .466.382.844.854.844h.854A.849.849 0 0 0 45 11.69a.849.849 0 0 0-.854-.843h-.854a.849.849 0 0 0-.855.844ZM17.667 37.847h4.15l-1.209-1.194a1.72 1.72 0 0 0-1.208-.494h-1.733c-6.605 0-11.959-5.288-11.959-11.812 0-6.524 5.354-11.813 11.959-11.813h13.666c6.605 0 11.959 5.289 11.959 11.813 0 6.524-5.354 11.812-11.959 11.812h-5.112c-.68 0-1.331-.266-1.812-.741l-1.415-1.398a4.298 4.298 0 0 0-3.02-1.236h-2.307c-4.718 0-8.542-3.777-8.542-8.437 0-4.66 3.824-8.438 8.542-8.438h13.666c4.718 0 8.542 3.778 8.542 8.438s-3.824 8.437-8.542 8.437h-3.282c-.68 0-1.332-.266-1.812-.741l-1.416-1.398a4.297 4.297 0 0 0-3.02-1.236h-4.136c-2.83 0-5.125-2.266-5.125-5.062 0-2.796 2.294-5.063 5.125-5.063h13.666c2.83 0 5.125 2.267 5.125 5.063 0 2.762-2.239 5.007-5.021 5.061v.001h-1.25c-.68 0-1.332-.266-1.813-.741L26.96 27.27a4.29 4.29 0 0 0-2.416-1.193l-.043-.043h-6.833a1.698 1.698 0 0 1-1.709-1.687c0-.932.765-1.688 1.709-1.688h13.666c.944 0 1.709.756 1.709 1.688 0 .932-.765 1.687-1.709 1.687h-3.416l1.208 1.194c.32.316.755.494 1.208.494h1c1.887 0 3.417-1.511 3.417-3.375s-1.53-3.375-3.417-3.375H17.667c-1.887 0-3.417 1.51-3.417 3.375 0 1.864 1.53 3.375 3.417 3.375h6.272c.68 0 1.331.266 1.812.741l1.415 1.398a4.297 4.297 0 0 0 3.02 1.236h1.574v-.013c3.575-.218 6.407-3.151 6.407-6.737 0-3.728-3.06-6.75-6.834-6.75H17.667c-3.774 0-6.834 3.022-6.834 6.75s3.06 6.75 6.834 6.75h4.136c.68 0 1.332.266 1.813.741l1.415 1.398a4.298 4.298 0 0 0 3.02 1.236h3.282c5.661 0 10.25-4.533 10.25-10.125s-4.589-10.125-10.25-10.125H17.667c-5.661 0-10.25 4.533-10.25 10.125s4.589 10.125 10.25 10.125h2.307c.68 0 1.331.267 1.812.741l1.415 1.398a4.297 4.297 0 0 0 3.02 1.236h5.112c7.548 0 13.667-6.044 13.667-13.5s-6.119-13.5-13.667-13.5H17.667C10.119 10.847 4 16.89 4 24.347s6.119 13.5 13.667 13.5Z"/></g><defs><clipPath id="a"><path fill="#fff" transform="translate(4 10.847)" d="M0 0h41v27H0z"/></clipPath></defs></svg>