<svg width="48" height="48" fill="none" xmlns="http://www.w3.org/2000/svg"><g clip-path="url(#a)"><path fill-rule="evenodd" clip-rule="evenodd" d="M13.986 13.961 4 23.847a28.269 28.269 0 0 0 6.767 4.947A13.935 13.935 0 0 0 14 33.746c5.523 5.468 14.477 5.468 20 0a13.934 13.934 0 0 0 3.233-4.952A28.265 28.265 0 0 0 44 23.847l-9.978-9.878-.022-.022c-5.523-5.467-14.477-5.467-20 0l-.014.014Zm19.059 16.617a28.547 28.547 0 0 1-18.09 0c.316.414.664.811 1.045 1.188 4.418 4.374 11.582 4.374 16 0 .381-.377.73-.774 1.044-1.188Zm-16.84-14.849a14.268 14.268 0 0 0 15.59 0c-4.363-4.11-11.227-4.11-15.59 0Z" fill="#3B4158"/></g><defs><clipPath id="a"><path fill="#fff" transform="translate(4 9.847)" d="M0 0h40v28H0z"/></clipPath></defs></svg>