<svg width="48" height="48" fill="none" xmlns="http://www.w3.org/2000/svg"><path d="M24.904 18.394V23.475c0 .117.014.23.043.337l-.048.818-.003.044a.736.736 0 0 1-.212.486l1.443-.945a.779.779 0 0 1-.246-.087l-.397-.216v-5.518m-.58 0h.58m-.58 0a.29.29 0 0 0 .58 0m-.58 0h.58m-6.2-.45Zm0 0a.824.824 0 0 1-1.1.296l1.1-.295Zm-1.432.874a1.188 1.188 0 0 1-.554-.723l-.001-.002c-.067-.25-.05-.512.046-.75v-.194c-.17.295-.216.639-.128.968.088.329.3.604.595.775l.042-.074Zm7.244 6.753.06.06-.06-.06h-.001a1.33 1.33 0 0 1-2.076-.249 2.234 2.234 0 0 1-.073.037l2.15.212Zm-7.177-8.087a.6.6 0 0 0-.06.46.603.603 0 0 0 .283.37l-.223-.83ZM16.125 30.792a.375.375 0 1 1-.387-.645l.387.645Zm-4.378-4.365.04-.074.1-.18.077.04-.138.248a.808.808 0 0 1-.08-.034Zm10.408 2.294a.659.659 0 0 0 .228-.91l-.228.91ZM27.853 28.093a1.335 1.335 0 0 1-.255-.205l-.72-.376-.04-.021a.739.739 0 0 0-.341-.088l1.356.69Zm-1.681-1.231.055.222.086.342-.141-.564Zm4.215 6.924Zm-4.542-3.599.001.001h-.001Z" fill="#4CAF4F" stroke="#4CAF4F" stroke-width="1.333"/></svg>