<svg width="18" height="18" fill="none" xmlns="http://www.w3.org/2000/svg"><path fill-rule="evenodd" clip-rule="evenodd" d="M17.533 8.66a8.536 8.536 0 0 1-.671 3.317 8.588 8.588 0 0 1-3.09 3.748 8.62 8.62 0 0 1-1.45.786 8.568 8.568 0 0 1-6.644 0 8.62 8.62 0 0 1-1.45-.786 8.598 8.598 0 0 1-3.09-3.748 8.494 8.494 0 0 1-.499-5.033 8.472 8.472 0 0 1 1.285-3.05 8.603 8.603 0 0 1 2.304-2.3A8.45 8.45 0 0 1 7.28.312a8.6 8.6 0 0 1 5.04.497 8.564 8.564 0 0 1 3.754 3.087 8.444 8.444 0 0 1 1.285 3.05c.115.56.173 1.137.173 1.715ZM5.89 2.078A7.288 7.288 0 0 0 1.868 7.16c.192.001 3.23.04 6.728-.889A43.818 43.818 0 0 0 5.89 2.078ZM9.2 7.392c-3.752 1.121-7.353 1.04-7.482 1.036-.002.078-.006.154-.006.232a7.24 7.24 0 0 0 1.867 4.862c-.002-.003 1.992-3.536 5.925-4.806.095-.032.191-.06.287-.088A24.597 24.597 0 0 0 9.2 7.392Zm4.612-4.194A7.258 7.258 0 0 0 9 1.383c-.593 0-1.167.072-1.718.204.11.147 1.478 1.96 2.725 4.245 2.75-1.03 3.787-2.607 3.805-2.634Zm-3.524 6.636-.048.016c-4.3 1.497-5.704 4.513-5.72 4.546A7.279 7.279 0 0 0 9 15.936a7.26 7.26 0 0 0 2.845-.576c-.108-.636-.532-2.865-1.557-5.526Zm2.784 4.86a7.279 7.279 0 0 0 3.123-4.88c-.15-.049-2.19-.694-4.542-.317.956 2.623 1.345 4.76 1.419 5.198Zm-2.504-7.777a22.839 22.839 0 0 1 .641 1.432c2.504-.315 4.97.214 5.076.236a7.234 7.234 0 0 0-1.658-4.548c-.013.02-1.182 1.706-4.06 2.88Z" fill="#fff"/></svg>