<svg width="48" height="48" fill="none" xmlns="http://www.w3.org/2000/svg"><path d="M40 42v-4a8 8 0 0 0-8-8h-2a2 2 0 0 1-2-2V18a4 4 0 1 0-8 0v18l-4.8-6.4A4 4 0 0 0 12 28h-.868a3.132 3.132 0 0 0-2.686 4.744L14 42M24 8V6v2Zm12 12h2-2Zm-26 0h2-2Zm4.686-9.314-1.414-1.414 1.414 1.414Zm18.628 0 1.414-1.414-1.414 1.414Z" fill="#4CAF4F"/><path d="M40 42v-4a8 8 0 0 0-8-8h-2a2 2 0 0 1-2-2V18a4 4 0 0 0-4-4v0a4 4 0 0 0-4 4v18l-4.8-6.4A4 4 0 0 0 12 28h-.868a3.132 3.132 0 0 0-2.686 4.744L14 42M24 8V6m12 14h2m-28 0h2m2.686-9.314-1.414-1.414m20.042 1.414 1.414-1.414" stroke="#4CAF4F" stroke-width="2" stroke-linecap="round" stroke-linejoin="round"/></svg>