<svg width="18" height="18" fill="none" xmlns="http://www.w3.org/2000/svg"><path fill-rule="evenodd" clip-rule="evenodd" d="M9 .138c-2.317 0-2.608.01-3.518.052-.908.042-1.528.185-2.07.396a4.179 4.179 0 0 0-1.513.984 4.19 4.19 0 0 0-.984 1.512C.703 3.625.559 4.245.518 5.153c-.04.91-.051 1.201-.051 3.519 0 2.317.01 2.607.051 3.518.042.908.186 1.528.397 2.07.218.562.51 1.038.984 1.512.474.475.95.767 1.511.985.543.211 1.163.355 2.071.397.91.041 1.201.051 3.519.051s2.607-.01 3.518-.051c.908-.042 1.529-.186 2.072-.397a4.176 4.176 0 0 0 1.51-.985c.475-.474.767-.95.985-1.511.21-.543.354-1.163.397-2.071.04-.91.051-1.2.051-3.518 0-2.318-.01-2.609-.051-3.519-.043-.908-.187-1.528-.397-2.07A4.187 4.187 0 0 0 16.1 1.57a4.17 4.17 0 0 0-1.51-.984c-.545-.21-1.165-.354-2.074-.396-.91-.041-1.2-.052-3.518-.052h.003Zm-.765 1.538h.766c2.278 0 2.548.008 3.448.05.832.037 1.284.176 1.584.293.399.155.683.34.981.638.299.299.484.583.639.982.116.3.256.752.293 1.584.041.9.05 1.17.05 3.447s-.009 2.547-.05 3.447c-.038.832-.177 1.284-.293 1.584-.155.398-.34.682-.639.98a2.638 2.638 0 0 1-.98.639c-.301.117-.753.255-1.585.294-.9.04-1.17.05-3.448.05-2.279 0-2.549-.01-3.448-.05-.832-.039-1.284-.178-1.585-.295a2.643 2.643 0 0 1-.981-.638 2.644 2.644 0 0 1-.639-.98c-.117-.301-.256-.753-.294-1.585-.04-.9-.049-1.17-.049-3.448 0-2.279.008-2.548.05-3.447.037-.832.176-1.284.293-1.585.155-.398.34-.682.639-.981.298-.299.583-.484.981-.639.3-.117.753-.256 1.585-.294.787-.035 1.092-.046 2.682-.048v.002Zm5.32 1.417a1.024 1.024 0 1 0 0 2.048 1.024 1.024 0 0 0 0-2.048ZM9.002 4.29a4.382 4.382 0 1 0 0 8.764 4.382 4.382 0 0 0 0-8.764Zm0 1.537a2.844 2.844 0 1 1 0 5.69 2.844 2.844 0 0 1 0-5.69Z" fill="#fff"/></svg>