<svg width="155" height="24" fill="none" xmlns="http://www.w3.org/2000/svg"><path d="m18.786 13.134-5.39 9.233-5.392-9.233h10.782Zm1.444-.825H6.554L13.395 24l6.835-11.691ZM28.16 1.65l5.39 9.233H22.768L28.16 1.65Zm0-1.65-6.842 11.691H35L28.16 0Z" fill="#263238"/><path d="m0 0 5.736 10.34L12.004.26 0 0ZM13.396.906l6.016 10.283H7.367L13.396.906ZM20.962 13.434 26.983 24H14.653l6.121-10.566h.188ZM22.265 12.793l5.894 10.405 5.976-10.405h-11.87Z" fill="#4CAF4F"/><path d="M60.033 1.669v20.364h-3.72L47.456 9.216h-.15v12.817H43V1.669h3.778l8.79 12.807h.18V1.669h4.285ZM70.47 22.33c-1.57 0-2.923-.317-4.056-.954a6.537 6.537 0 0 1-2.605-2.724c-.61-1.18-.915-2.575-.915-4.186 0-1.571.305-2.95.915-4.136.61-1.187 1.468-2.112 2.575-2.775 1.114-.663 2.42-.994 3.918-.994 1.007 0 1.945.162 2.813.487a6.242 6.242 0 0 1 2.287 1.442c.657.643 1.167 1.452 1.532 2.426.364.968.547 2.101.547 3.4v1.164H64.584v-2.625h8.91c0-.61-.133-1.15-.398-1.62a2.848 2.848 0 0 0-1.104-1.104c-.464-.272-1.004-.408-1.62-.408-.644 0-1.214.15-1.711.447-.49.292-.875.687-1.154 1.184a3.34 3.34 0 0 0-.427 1.64v2.496c0 .756.14 1.409.418 1.959.285.55.686.974 1.203 1.273.517.298 1.13.447 1.84.447.47 0 .9-.066 1.292-.199a2.682 2.682 0 0 0 1.004-.596c.278-.266.49-.59.636-.975l3.918.259a5.351 5.351 0 0 1-1.223 2.466c-.61.696-1.399 1.24-2.367 1.63-.96.385-2.071.577-3.33.577ZM83.511 6.76l2.804 5.34 2.874-5.34h4.345l-4.425 7.636 4.544 7.637h-4.325l-3.013-5.28-2.963 5.28h-4.375l4.534-7.637-4.375-7.636h4.375ZM102.403 22.33c-1.564 0-2.91-.33-4.037-.993a6.721 6.721 0 0 1-2.585-2.785c-.597-1.186-.895-2.552-.895-4.096 0-1.564.302-2.937.905-4.117a6.722 6.722 0 0 1 2.595-2.774c1.12-.67 2.453-1.004 3.997-1.004 1.333 0 2.499.242 3.5.726s1.793 1.163 2.377 2.038c.583.875.904 1.903.964 3.083h-3.997c-.113-.763-.411-1.376-.895-1.84-.477-.47-1.104-.706-1.879-.706-.656 0-1.23.18-1.72.537-.484.351-.862.865-1.134 1.541-.272.677-.408 1.495-.408 2.456 0 .975.133 1.803.398 2.486.272.683.653 1.203 1.144 1.561.49.358 1.064.537 1.72.537.484 0 .918-.1 1.302-.298.391-.2.713-.487.965-.865.258-.385.427-.845.507-1.382h3.997c-.066 1.166-.384 2.194-.954 3.082-.564.882-1.343 1.571-2.337 2.068-.994.497-2.171.746-3.53.746ZM118.896 22.33c-1.571 0-2.923-.317-4.057-.954a6.544 6.544 0 0 1-2.605-2.724c-.609-1.18-.914-2.575-.914-4.186 0-1.571.305-2.95.914-4.136.61-1.187 1.469-2.112 2.576-2.775 1.113-.663 2.419-.994 3.917-.994 1.008 0 1.946.162 2.814.487a6.237 6.237 0 0 1 2.287 1.442c.656.643 1.167 1.452 1.531 2.426.365.968.547 2.101.547 3.4v1.164H113.01v-2.625h8.909c0-.61-.133-1.15-.398-1.62a2.85 2.85 0 0 0-1.103-1.104c-.464-.272-1.005-.408-1.621-.408-.643 0-1.213.15-1.71.447a3.14 3.14 0 0 0-1.154 1.184 3.339 3.339 0 0 0-.427 1.64v2.496c0 .756.139 1.409.417 1.959.285.55.686.974 1.203 1.273.517.298 1.131.447 1.84.447a4.01 4.01 0 0 0 1.293-.199 2.687 2.687 0 0 0 1.004-.596 2.6 2.6 0 0 0 .636-.975l3.918.259a5.356 5.356 0 0 1-1.223 2.466c-.61.696-1.399 1.24-2.367 1.63-.961.385-2.071.577-3.331.577ZM132.906 13.203v8.83h-4.236V6.76h4.037v2.695h.179a4.259 4.259 0 0 1 1.701-2.108c.795-.524 1.76-.786 2.893-.786 1.061 0 1.985.232 2.774.696.789.464 1.402 1.127 1.84 1.989.437.855.656 1.876.656 3.062v9.725h-4.236v-8.97c.007-.934-.232-1.663-.716-2.187-.484-.53-1.15-.795-1.998-.795-.57 0-1.074.123-1.512.368a2.562 2.562 0 0 0-1.014 1.074c-.238.464-.361 1.024-.368 1.68ZM154.212 6.76v3.182h-9.197V6.76h9.197Zm-7.109-3.66h4.235v14.24c0 .39.06.695.179.914.12.212.285.361.498.448.218.086.47.129.755.129.199 0 .398-.017.597-.05l.457-.09.666 3.153c-.212.066-.51.142-.894.228-.385.093-.852.15-1.402.17-1.021.04-1.916-.097-2.685-.408-.762-.312-1.356-.796-1.78-1.452-.424-.656-.633-1.485-.626-2.486V3.101Z" fill="#263238"/></svg>