<svg width="191" height="30" fill="none" xmlns="http://www.w3.org/2000/svg"><path d="M23.226 16.238 16.56 27.653 9.896 16.238h13.33Zm1.785-1.02H8.103l8.458 14.454 8.45-14.454ZM34.814 2.04l6.665 11.415h-13.33L34.814 2.04Zm0-2.04-8.458 14.454h16.915L34.814 0Z" fill="#fff"/><path d="m0 0 7.091 12.785L14.841.32 0 0ZM16.561 1.12 24 13.833H9.108L16.561 1.12ZM25.915 16.609l7.446 13.063H18.115l7.569-13.063h.231ZM27.527 15.817l7.287 12.863L42.2 15.817H27.527Z" fill="#4CAF4F"/><path d="M74.22 2.063V27.24h-4.598L58.67 11.394h-.184v15.845h-5.323V2.063h4.671L68.7 17.897h.221V2.063h5.299ZM87.124 27.608c-1.942 0-3.614-.393-5.015-1.18-1.393-.795-2.467-1.918-3.221-3.368-.754-1.459-1.131-3.184-1.131-5.176 0-1.942.377-3.646 1.131-5.114.754-1.466 1.815-2.61 3.184-3.43 1.377-.819 2.991-1.229 4.843-1.229 1.246 0 2.406.201 3.48.603a7.717 7.717 0 0 1 2.827 1.782c.811.795 1.442 1.795 1.893 3 .45 1.196.676 2.598.676 4.204v1.438H79.847v-3.245H90.86c0-.754-.163-1.422-.491-2.004a3.521 3.521 0 0 0-1.365-1.364c-.573-.336-1.242-.504-2.004-.504-.795 0-1.5.184-2.114.553a3.878 3.878 0 0 0-1.426 1.463 4.132 4.132 0 0 0-.529 2.028v3.086c0 .934.172 1.741.517 2.421a3.78 3.78 0 0 0 1.487 1.574c.64.369 1.397.553 2.274.553.582 0 1.115-.082 1.598-.246.484-.164.898-.41 1.242-.737.344-.328.606-.73.787-1.205l4.843.32a6.614 6.614 0 0 1-1.512 3.048c-.754.86-1.729 1.533-2.926 2.016-1.188.476-2.56.713-4.118.713ZM103.247 8.357l3.466 6.602 3.553-6.602h5.372l-5.471 9.441 5.618 9.441h-5.347l-3.725-6.527-3.663 6.527h-5.41l5.607-9.44-5.41-9.442h5.41ZM126.603 27.608c-1.934 0-3.598-.41-4.991-1.23-1.385-.827-2.45-1.974-3.196-3.441-.737-1.467-1.106-3.155-1.106-5.065 0-1.934.373-3.63 1.118-5.09.754-1.466 1.824-2.61 3.209-3.429 1.385-.828 3.032-1.242 4.942-1.242 1.647 0 3.089.3 4.327.898 1.237.598 2.217 1.438 2.938 2.52.721 1.082 1.118 2.352 1.192 3.81h-4.942c-.139-.942-.508-1.7-1.106-2.273-.59-.582-1.364-.873-2.323-.873-.812 0-1.521.221-2.127.664-.598.434-1.065 1.07-1.401 1.905-.336.836-.504 1.848-.504 3.036 0 1.205.163 2.23.491 3.074.336.844.808 1.487 1.414 1.93.606.442 1.315.663 2.127.663.598 0 1.135-.122 1.61-.368a3.103 3.103 0 0 0 1.192-1.07c.32-.475.529-1.045.627-1.709h4.942c-.082 1.443-.475 2.713-1.18 3.811-.697 1.09-1.659 1.942-2.889 2.557-1.229.615-2.684.922-4.364.922ZM146.994 27.608c-1.942 0-3.614-.393-5.015-1.18-1.394-.795-2.467-1.918-3.221-3.368-.754-1.459-1.131-3.184-1.131-5.176 0-1.942.377-3.646 1.131-5.114.754-1.466 1.815-2.61 3.184-3.43 1.377-.819 2.991-1.229 4.843-1.229 1.246 0 2.406.201 3.479.603a7.725 7.725 0 0 1 2.828 1.782c.811.795 1.442 1.795 1.893 3 .45 1.196.676 2.598.676 4.204v1.438h-15.944v-3.245h11.014c0-.754-.164-1.422-.491-2.004a3.523 3.523 0 0 0-1.365-1.364c-.574-.336-1.242-.504-2.004-.504-.795 0-1.499.184-2.114.553a3.873 3.873 0 0 0-1.426 1.463 4.132 4.132 0 0 0-.529 2.028v3.086c0 .934.172 1.741.517 2.421.352.68.848 1.205 1.487 1.574.639.369 1.397.553 2.274.553a4.95 4.95 0 0 0 1.598-.246c.484-.164.898-.41 1.242-.737a3.22 3.22 0 0 0 .787-1.205l4.843.32a6.616 6.616 0 0 1-1.512 3.048c-.754.86-1.729 1.533-2.926 2.016-1.188.476-2.561.713-4.118.713ZM164.315 16.323V27.24h-5.237V8.357h4.991v3.332h.221a5.267 5.267 0 0 1 2.103-2.606c.983-.648 2.175-.972 3.577-.972 1.311 0 2.454.287 3.43.861.975.574 1.733 1.393 2.274 2.459.541 1.057.811 2.319.811 3.786v12.022h-5.237V16.151c.008-1.155-.287-2.057-.885-2.704-.598-.656-1.422-.984-2.471-.984-.705 0-1.327.152-1.868.455a3.166 3.166 0 0 0-1.254 1.328c-.295.573-.447 1.266-.455 2.077ZM190.656 8.357v3.934h-11.371V8.357h11.371Zm-8.79-4.523h5.237v17.603c0 .484.074.86.221 1.131.148.262.353.447.615.553.27.107.582.16.934.16.246 0 .492-.02.738-.061.246-.05.434-.086.565-.111l.824 3.897c-.262.082-.631.176-1.106.282-.476.115-1.053.185-1.734.21-1.262.049-2.368-.12-3.319-.505-.942-.385-1.676-.983-2.2-1.794-.525-.812-.783-1.836-.775-3.074V3.834Z" fill="#fff"/></svg>