<svg width="48" height="48" fill="none" xmlns="http://www.w3.org/2000/svg"><path d="m23.296 29.547.607-.51a11.5 11.5 0 1 0-14.806 0l.607.51-.723.327a18.269 18.269 0 0 0-7.41 6.132l21.725-6.459Zm0 0 .723.327m-.723-.327.723.327m0 0a18.268 18.268 0 0 1 7.41 6.133l.007.01.007.01a1.75 1.75 0 1 1-2.858 2.012l-.006-.01-.007-.01a14.75 14.75 0 0 0-24.144 0v.002A1.73 1.73 0 0 1 3 38.762h-.003c-.359 0-.709-.111-1.001-.32l-.002-.002m22.024-8.567L1.995 38.441m0 0a1.75 1.75 0 0 1-.424-2.434l.424 2.434Zm44.295-.002a1.731 1.731 0 0 0 .422-2.43l-.002-.002a18.268 18.268 0 0 0-7.41-6.133l-.725-.328.61-.51A11.481 11.481 0 0 0 31.783 8.75h-.003a11.275 11.275 0 0 0-3.106.43l-.009.003a1.75 1.75 0 0 0-.923 2.78l-.378.3.378-.3a1.75 1.75 0 0 0 1.871.59l.006-.003a7.833 7.833 0 0 1 2.163-.3M46.29 38.44l-2.846-.134.408-.288a14.788 14.788 0 0 0-12.07-6.268 1.75 1.75 0 0 1 0-3.5 8 8 0 0 0 0-16M46.29 38.44l-.006.003m.006-.004-.006.004M31.782 12.25v.5-.5Zm7.724 17.169.206-.456c.07.031.138.063.206.095-.134.123-.271.243-.412.36Zm0 0 .321.383.176-.15c-.164-.08-.33-.158-.497-.233Zm6.778 9.024c-.292.209-.642.32-1 .32l1-.32ZM9.848 15.805a8 8 0 1 0 13.304 8.89 8 8 0 0 0-13.304-8.89Z" fill="#4CAF4F" stroke="#4CAF4F"/></svg>