<svg width="65" height="56" fill="none" xmlns="http://www.w3.org/2000/svg"><path d="M65 38c0 9.941-8.059 18-18 18H20a5 5 0 0 1-5-5V17c0-5.523 4.477-10 10-10h35a5 5 0 0 1 5 5v26Z" fill="#E8F5E9"/><path d="M23.99 10c-3.571 0-6.479 2.934-6.479 6.52a6.526 6.526 0 0 0 2.925 5.44 11.244 11.244 0 0 0-5.312 3.776 9.362 9.362 0 0 0-2.477-1.366 5.554 5.554 0 0 0 2.252-4.46c0-3.042-2.46-5.532-5.484-5.532-3.023 0-5.483 2.49-5.483 5.532 0 1.826.89 3.451 2.254 4.462A9.494 9.494 0 0 0 0 33.293v2.882a.827.827 0 0 0 .83.826h12.646c.03.004.06.005.091.005h20.846c.03 0 .062-.002.092-.005h12.646a.828.828 0 0 0 .824-.826v-2.882a9.492 9.492 0 0 0-6.18-8.921 5.553 5.553 0 0 0 2.254-4.462c0-3.042-2.46-5.532-5.483-5.532-3.023 0-5.484 2.49-5.484 5.532 0 1.825.89 3.45 2.253 4.46-.9.331-1.734.794-2.48 1.369a11.235 11.235 0 0 0-5.31-3.779 6.528 6.528 0 0 0 2.925-5.44c0-3.586-2.909-6.52-6.48-6.52Zm0 1.654c2.671 0 4.824 2.168 4.824 4.866 0 2.678-2.12 4.824-4.76 4.859-.022 0-.043-.003-.064-.003l-.063.003c-2.642-.034-4.76-2.181-4.76-4.859 0-2.698 2.152-4.866 4.823-4.866ZM9.416 16.032c2.119 0 3.829 1.72 3.829 3.878 0 2.143-1.688 3.855-3.787 3.879l-.042-.002-.043.002c-2.099-.024-3.787-1.737-3.787-3.88 0-2.156 1.71-3.877 3.83-3.877Zm29.15 0c2.119 0 3.828 1.72 3.828 3.878 0 2.143-1.687 3.855-3.787 3.879l-.042-.002-.042.002c-2.1-.024-3.787-1.737-3.787-3.88 0-2.156 1.71-3.877 3.83-3.877Zm-14.64 7c.022.001.042.004.064.004l.063-.003c5.297.034 9.537 4.31 9.537 9.662v2.656H14.39v-2.656c0-5.353 4.238-9.628 9.535-9.662ZM9.353 25.446l.063.003c.022 0 .042-.003.064-.003a7.663 7.663 0 0 1 4.728 1.666 11.312 11.312 0 0 0-1.47 5.585v2.65H1.654v-2.053c0-4.35 3.42-7.814 7.698-7.848Zm29.15 0 .063.003c.022 0 .042-.003.063-.003 4.278.034 7.699 3.498 7.699 7.849v2.051h-11.09v-2.65a11.32 11.32 0 0 0-1.467-5.581 7.663 7.663 0 0 1 4.732-1.669Z" fill="#103E13"/></svg>