<svg width="66" height="56" fill="none" xmlns="http://www.w3.org/2000/svg"><path d="M65.5 38c0 9.941-8.059 18-18 18h-27a5 5 0 0 1-5-5V17c0-5.523 4.477-10 10-10h35a5 5 0 0 1 5 5v26Z" fill="#E8F5E9"/><path d="M27.416 19.01a.566.566 0 0 1-.565-.565v-.961a.566.566 0 0 1 1.131 0v.961a.566.566 0 0 1-.566.566ZM25.038 19.01a.566.566 0 0 1-.566-.565v-.961a.566.566 0 0 1 1.132 0v.961a.566.566 0 0 1-.566.566ZM22.66 19.01a.566.566 0 0 1-.566-.565v-.961a.566.566 0 0 1 1.132 0v.961a.566.566 0 0 1-.566.566ZM27.416 22.942a.566.566 0 0 1-.565-.566v-.96a.566.566 0 0 1 1.131 0v.96a.566.566 0 0 1-.566.566ZM25.038 22.942a.566.566 0 0 1-.566-.566v-.96a.566.566 0 0 1 1.132 0v.96a.566.566 0 0 1-.566.566ZM22.66 22.942a.566.566 0 0 1-.566-.566v-.96a.566.566 0 0 1 1.132 0v.96a.566.566 0 0 1-.566.566ZM27.416 26.873a.566.566 0 0 1-.565-.565v-.962a.566.566 0 0 1 1.131 0v.962a.566.566 0 0 1-.566.565ZM25.038 26.873a.566.566 0 0 1-.566-.565v-.962a.566.566 0 0 1 1.132 0v.962a.566.566 0 0 1-.566.565ZM22.66 26.873a.566.566 0 0 1-.566-.565v-.962a.566.566 0 0 1 1.132 0v.962a.566.566 0 0 1-.566.565ZM27.416 30.804a.566.566 0 0 1-.565-.566v-.961a.566.566 0 0 1 1.131 0v.961a.566.566 0 0 1-.566.566ZM25.038 30.804a.566.566 0 0 1-.566-.566v-.961a.566.566 0 0 1 1.132 0v.961a.566.566 0 0 1-.566.566ZM22.66 30.804a.566.566 0 0 1-.566-.566v-.961a.566.566 0 0 1 1.132 0v.961a.566.566 0 0 1-.566.566ZM27.416 34.735a.566.566 0 0 1-.565-.566v-.96a.566.566 0 0 1 1.131 0v.96a.566.566 0 0 1-.566.566ZM25.038 34.735a.566.566 0 0 1-.566-.566v-.96a.566.566 0 0 1 1.132 0v.96a.566.566 0 0 1-.566.566ZM22.66 34.735a.566.566 0 0 1-.566-.566v-.96a.566.566 0 0 1 1.132 0v.96a.567.567 0 0 1-.566.566Z" fill="#103E13"/><path d="M6.5 38.647c0 .312.254.566.566.566h34.448a.566.566 0 0 0 0-1.132h-1.046v-16.24a.566.566 0 0 0-.566-.567h-9.235V9.567a.566.566 0 0 0-.827-.502l-10.5 5.467a.565.565 0 0 0-.304.502V25.26H8.874a.566.566 0 0 0-.566.566v12.256H7.065a.565.565 0 0 0-.565.565Zm24.167-8.805h8.67v8.24h-8.67v-8.24Zm0-3.93h8.67v2.8l-8.67-.001v-2.8Zm0-3.506h8.67v2.375h-8.67v-2.375Zm-10.5-7.03 9.368-4.878v27.583h-9.368V15.376Zm-7.931 18.188c0-1.175.93-2.13 2.074-2.13 1.143 0 2.074.955 2.074 2.13v4.518h-4.148v-4.519ZM9.44 26.391h9.596v11.69h-1.521v-4.519c0-1.797-1.437-3.26-3.205-3.26s-3.205 1.462-3.205 3.26v4.518H9.44v-11.69Z" fill="#103E13"/></svg>