<svg width="16" height="14" fill="none" xmlns="http://www.w3.org/2000/svg"><path fill-rule="evenodd" clip-rule="evenodd" d="m7.52 3.677.034.553-.56-.067C4.959 3.903 3.179 3.02 1.669 1.54L.928.807l-.19.542c-.402 1.21-.145 2.486.695 3.345.447.474.346.542-.426.26-.268-.09-.503-.159-.526-.125-.078.08.19 1.107.403 1.514.291.565.884 1.119 1.533 1.446l.549.26-.65.012c-.626 0-.648.01-.581.248.224.735 1.108 1.514 2.093 1.853l.693.237-.604.362a6.3 6.3 0 0 1-3 .836c-.503.011-.917.057-.917.09 0 .114 1.365.746 2.16.995 2.384.734 5.215.418 7.342-.836 1.51-.893 3.021-2.667 3.727-4.384.38-.915.76-2.588.76-3.39 0-.52.034-.587.66-1.209.37-.361.717-.757.784-.87.112-.214.101-.214-.47-.022-.951.339-1.085.293-.615-.215.347-.362.76-1.017.76-1.209 0-.034-.167.023-.357.124-.202.113-.65.283-.985.384l-.605.193-.548-.373c-.302-.204-.727-.43-.951-.497-.571-.159-1.444-.136-1.959.045C8.304.93 7.42 2.242 7.521 3.677Z" fill="#fff"/></svg>